<svg xmlns="http://www.w3.org/2000/svg" viewBox="0 0 512 512">
  <!-- Single vector source for every raster icon (§11.4.2). Regenerate the
       PNGs with `npm run icons` after editing — never edit the PNGs by hand.
       Artwork stays inside the 80%-diameter safe zone so Android's adaptive
       mask cannot eat it. -->
  <defs>
    <radialGradient id="moon" cx="0.38" cy="0.3" r="1">
      <stop offset="0" stop-color="#ff6a52"/>
      <stop offset="0.45" stop-color="#d63333"/>
      <stop offset="0.8" stop-color="#8f1522"/>
      <stop offset="1" stop-color="#6b0e1d"/>
    </radialGradient>
    <radialGradient id="glow" cx="0.5" cy="0.5" r="0.5">
      <stop offset="0.72" stop-color="#e0402f" stop-opacity="0.35"/>
      <stop offset="1" stop-color="#e0402f" stop-opacity="0"/>
    </radialGradient>
    <clipPath id="disc">
      <circle cx="256" cy="248" r="160"/>
    </clipPath>
  </defs>
  <rect width="512" height="512" fill="#0b0d10"/>
  <!-- Star field -->
  <g fill="#9aa3ad">
    <circle cx="92" cy="88" r="4"/>
    <circle cx="418" cy="72" r="3"/>
    <circle cx="452" cy="180" r="4"/>
    <circle cx="64" cy="236" r="3"/>
    <circle cx="86" cy="408" r="4"/>
    <circle cx="430" cy="396" r="3"/>
    <circle cx="356" cy="52" r="2.5"/>
    <circle cx="150" cy="52" r="2.5"/>
  </g>
  <!-- Blood-red halo -->
  <circle cx="256" cy="248" r="204" fill="url(#glow)"/>
  <!-- The moon -->
  <circle cx="256" cy="248" r="160" fill="url(#moon)"/>
  <!-- Craters -->
  <g fill="#7c1120">
    <circle cx="196" cy="196" r="30"/>
    <circle cx="300" cy="160" r="18"/>
    <circle cx="330" cy="270" r="26"/>
    <circle cx="238" cy="300" r="16"/>
    <circle cx="160" cy="284" r="14"/>
  </g>
  <!-- Terminator shadow: dark limb on the lower right, clipped to the disc -->
  <circle cx="196" cy="188" r="200" fill="none" stroke="#3d0713" stroke-width="120"
          opacity="0.5" clip-path="url(#disc)"/>
  <!-- Blood dripping off the lower limb -->
  <g fill="#72131e">
    <path d="M194 386 C199 410 200 415 200 421 A8.5 8.5 0 1 0 217 421 C217 413 219 406 222 384 Z"/>
    <path d="M256 394 C262 424 262.5 438 262.5 447 A9.5 9.5 0 1 0 281.5 447 C281.5 436 284 424 286 392 Z"/>
    <path d="M314 380 C318 398 319.5 402 319.5 408 A8 8 0 1 0 335.5 408 C335.5 402 338 394 340 376 Z"/>
  </g>
</svg>
